<?xml version="1.0" encoding="utf-8" standalone="no"?>
<!DOCTYPE svg PUBLIC "-//W3C//DTD SVG 1.1//EN"
  "http://www.w3.org/Graphics/SVG/1.1/DTD/svg11.dtd">
<!-- Created with matplotlib (http://matplotlib.org/) -->
<svg height="216pt" version="1.1" viewBox="0 0 360 216" width="360pt" xmlns="http://www.w3.org/2000/svg" xmlns:xlink="http://www.w3.org/1999/xlink">
 <defs>
  <style type="text/css">
*{stroke-linecap:butt;stroke-linejoin:round;}
  </style>
 </defs>
 <g id="figure_1">
  <g id="patch_1">
   <path d="M 0 216 
L 360 216 
L 360 0 
L 0 0 
z
" style="fill:none;"/>
  </g>
  <g id="axes_1">
   <g id="line2d_1">
    <path clip-path="url(#p73aef4b045)" d="M 16.363636 126.782609 
L 88.163669 12.471795 
L 203.640102 169.199586 
L 343.636364 107.393205 
L 221.200176 56.347826 
" style="fill:none;stroke:#d95319;stroke-linecap:square;stroke-width:1.5;"/>
    <defs>
     <path d="M 0 5 
C 1.326016 5 2.597899 4.473168 3.535534 3.535534 
C 4.473168 2.597899 5 1.326016 5 0 
C 5 -1.326016 4.473168 -2.597899 3.535534 -3.535534 
C 2.597899 -4.473168 1.326016 -5 0 -5 
C -1.326016 -5 -2.597899 -4.473168 -3.535534 -3.535534 
C -4.473168 -2.597899 -5 -1.326016 -5 0 
C -5 1.326016 -4.473168 2.597899 -3.535534 3.535534 
C -2.597899 4.473168 -1.326016 5 0 5 
z
" id="mf76b4e7ffa" style="stroke:#d95319;"/>
    </defs>
    <g clip-path="url(#p73aef4b045)">
     <use style="fill:none;stroke:#d95319;" x="16.363636" xlink:href="#mf76b4e7ffa" y="126.782609"/>
     <use style="fill:none;stroke:#d95319;" x="88.163669" xlink:href="#mf76b4e7ffa" y="12.471795"/>
     <use style="fill:none;stroke:#d95319;" x="203.640102" xlink:href="#mf76b4e7ffa" y="169.199586"/>
     <use style="fill:none;stroke:#d95319;" x="343.636364" xlink:href="#mf76b4e7ffa" y="107.393205"/>
     <use style="fill:none;stroke:#d95319;" x="221.200176" xlink:href="#mf76b4e7ffa" y="56.347826"/>
    </g>
   </g>
   <g id="line2d_2">
    <defs>
     <path d="M 0 3 
C 0.795609 3 1.55874 2.683901 2.12132 2.12132 
C 2.683901 1.55874 3 0.795609 3 0 
C 3 -0.795609 2.683901 -1.55874 2.12132 -2.12132 
C 1.55874 -2.683901 0.795609 -3 0 -3 
C -0.795609 -3 -1.55874 -2.683901 -2.12132 -2.12132 
C -2.683901 -1.55874 -3 -0.795609 -3 0 
C -3 0.795609 -2.683901 1.55874 -2.12132 2.12132 
C -1.55874 2.683901 -0.795609 3 0 3 
z
" id="m2c7695c479" style="stroke:#0072bd;"/>
    </defs>
    <g clip-path="url(#p73aef4b045)">
     <use style="fill:#0072bd;stroke:#0072bd;" x="16.363636" xlink:href="#m2c7695c479" y="126.782609"/>
     <use style="fill:#0072bd;stroke:#0072bd;" x="98.298252" xlink:href="#m2c7695c479" y="65.73913"/>
     <use style="fill:#0072bd;stroke:#0072bd;" x="234.855946" xlink:href="#m2c7695c479" y="150.26087"/>
     <use style="fill:#0072bd;stroke:#0072bd;" x="289.479023" xlink:href="#m2c7695c479" y="126.782609"/>
     <use style="fill:#0072bd;stroke:#0072bd;" x="221.200176" xlink:href="#m2c7695c479" y="56.347826"/>
    </g>
   </g>
   <g id="line2d_3">
    <path clip-path="url(#p73aef4b045)" d="M 16.363636 126.782609 
L 20.688177 120.092606 
L 25.014764 113.7893 
L 29.343398 107.872689 
L 33.674078 102.342774 
L 37.673445 97.581458 
L 41.674557 93.149634 
L 45.677412 89.047303 
L 49.682011 85.274464 
L 53.354425 82.105478 
L 57.028305 79.213357 
L 60.703649 76.598101 
L 64.380459 74.25971 
L 68.058735 72.198184 
L 71.403893 70.564324 
L 74.750262 69.159278 
L 78.097843 67.983047 
L 81.446634 67.035629 
L 84.796636 66.317026 
L 88.147849 65.827236 
L 91.500273 65.566261 
L 94.853908 65.5341 
L 98.208754 65.730752 
L 101.564811 66.156219 
L 104.92208 66.8105 
L 108.280559 67.693595 
L 111.640249 68.805504 
L 115.00115 70.146227 
L 118.363262 71.715765 
L 121.726585 73.514116 
L 125.427639 75.756583 
L 129.130158 78.275914 
L 132.834142 81.072111 
L 136.539592 84.145173 
L 140.246507 87.4951 
L 144.292086 91.465329 
L 148.339408 95.76505 
L 152.388474 100.394263 
L 156.439284 105.352969 
L 160.82963 111.096723 
L 164.577817 115.999043 
L 168.05004 120.175123 
L 171.584118 124.082685 
L 175.180049 127.72173 
L 178.837835 131.092258 
L 182.557476 134.194268 
L 185.958038 136.756495 
L 189.408702 139.101223 
L 192.909468 141.228452 
L 196.460335 143.138181 
L 200.061305 144.830412 
L 203.712377 146.305143 
L 207.413551 147.562376 
L 211.164827 148.602109 
L 214.966205 149.424343 
L 218.817685 150.029078 
L 222.719268 150.416314 
L 226.670952 150.586051 
L 230.672738 150.538288 
L 234.724626 150.273027 
L 238.826616 149.790267 
L 242.978708 149.090007 
L 247.180902 148.172248 
L 251.908769 146.897425 
L 256.698489 145.354084 
L 261.550064 143.542226 
L 266.459463 141.463888 
L 271.587213 139.041522 
L 275.825825 136.804125 
L 279.661602 134.533161 
L 283.094542 132.228628 
L 285.839763 130.125849 
L 288.258686 127.995879 
L 290.351313 125.83872 
L 291.937496 123.898419 
L 293.265865 121.936634 
L 294.336418 119.953366 
L 295.149156 117.948615 
L 295.704079 115.92238 
L 295.978148 114.131802 
L 296.054826 112.324775 
L 295.934115 110.5013 
L 295.554458 108.397188 
L 294.916986 106.271593 
L 294.021698 104.124514 
L 292.868595 101.955952 
L 291.457677 99.765907 
L 289.788944 97.554378 
L 287.603449 95.040729 
L 285.091657 92.499889 
L 282.253568 89.93186 
L 278.717441 87.046605 
L 274.778477 84.127782 
L 270.436678 81.175392 
L 265.195423 77.888991 
L 259.466735 74.561974 
L 252.661344 70.886176 
L 245.275869 67.162041 
L 237.31031 63.389569 
L 228.026345 59.248176 
L 221.200176 56.347826 
L 221.200176 56.347826 
" style="fill:none;stroke:#0072bd;stroke-linecap:square;stroke-width:1.5;"/>
   </g>
   <g id="line2d_4">
    <path clip-path="url(#p73aef4b045)" d="M 21.143156 190.173913 
L 21.143156 185.478261 
" style="fill:none;stroke:#000000;stroke-linecap:square;stroke-width:1.5;"/>
   </g>
   <g id="line2d_5">
    <path clip-path="url(#p73aef4b045)" d="M 23.191521 190.173913 
L 23.191521 185.478261 
" style="fill:none;stroke:#000000;stroke-linecap:square;stroke-width:1.5;"/>
   </g>
   <g id="line2d_6">
    <path clip-path="url(#p73aef4b045)" d="M 25.239886 190.173913 
L 25.239886 185.478261 
" style="fill:none;stroke:#000000;stroke-linecap:square;stroke-width:1.5;"/>
   </g>
   <g id="line2d_7">
    <path clip-path="url(#p73aef4b045)" d="M 150.785964 190.173913 
L 150.785964 185.478261 
" style="fill:none;stroke:#000000;stroke-linecap:square;stroke-width:1.5;"/>
   </g>
   <g id="line2d_8">
    <path clip-path="url(#p73aef4b045)" d="M 225.22608 190.173913 
L 225.22608 185.478261 
" style="fill:none;stroke:#000000;stroke-linecap:square;stroke-width:1.5;"/>
   </g>
   <g id="line2d_9">
    <path clip-path="url(#p73aef4b045)" d="M 316.35682 190.173913 
L 316.35682 185.478261 
" style="fill:none;stroke:#000000;stroke-linecap:square;stroke-width:1.5;"/>
   </g>
   <g id="line2d_10">
    <path clip-path="url(#p73aef4b045)" d="M 318.405186 190.173913 
L 318.405186 185.478261 
" style="fill:none;stroke:#000000;stroke-linecap:square;stroke-width:1.5;"/>
   </g>
   <g id="line2d_11">
    <path clip-path="url(#p73aef4b045)" d="M 320.453551 190.173913 
L 320.453551 185.478261 
" style="fill:none;stroke:#000000;stroke-linecap:square;stroke-width:1.5;"/>
   </g>
   <g id="text_1">
    <!-- $\xi_0 = \xi_p$ -->
    <defs>
     <path d="M 8.015625 15.921875 
Q 8.015625 24.515625 14.0625 32.046875 
Q 20.125 39.59375 28.515625 43.015625 
Q 23.640625 47.125 23.578125 52.875 
Q 23.578125 58.890625 29.59375 64.40625 
Q 21.09375 65.828125 21.09375 71.921875 
Q 21.09375 72.703125 21.296875 74.3125 
L 29.109375 74.3125 
Q 29.109375 73.34375 29.25 72.78125 
Q 29.390625 72.21875 30.484375 71.609375 
Q 31.59375 71 33.796875 71 
Q 38.375 71 52.484375 74.3125 
L 52.78125 66.796875 
Q 51.265625 66.40625 47.828125 65.640625 
Q 44.390625 64.890625 42.484375 64.453125 
Q 40.578125 64.015625 37.84375 63.015625 
Q 35.109375 62.015625 33.59375 60.953125 
Q 32.078125 59.90625 30.984375 58.203125 
Q 29.890625 56.5 29.890625 54.390625 
Q 29.890625 46.6875 45.125 46.6875 
L 43.5 38.921875 
L 43.40625 38.921875 
Q 32.125 38.8125 24.0625 32.34375 
Q 16.015625 25.875 16.015625 17.578125 
Q 16.015625 13.578125 18.15625 10.984375 
Q 20.3125 8.40625 23.6875 7.90625 
Q 23.78125 7.90625 25.53125 7.8125 
Q 27.296875 7.71875 29.140625 7.5625 
Q 31 7.421875 33.484375 6.8125 
Q 35.984375 6.203125 37.84375 5.25 
Q 39.703125 4.296875 40.984375 2.4375 
Q 42.28125 0.59375 42.28125 -1.90625 
Q 42.28125 -6.984375 37.296875 -11.234375 
Q 32.328125 -15.484375 24.03125 -15.578125 
L 25.484375 -8.109375 
Q 30.28125 -8.015625 32.28125 -6.5 
Q 34.28125 -4.984375 34.28125 -3.328125 
Q 34.28125 0 25.09375 0 
L 24.515625 0 
Q 19.828125 0 16.40625 1.53125 
Q 12.984375 3.078125 11.25 5.640625 
Q 9.515625 8.203125 8.765625 10.765625 
Q 8.015625 13.328125 8.015625 15.921875 
z
" id="CMUSansSerif-Oblique-3be"/>
     <path d="M 4.109375 31 
L 4.109375 32.71875 
Q 4.109375 36.625 4.25 39.5 
Q 4.390625 42.390625 5.1875 47.140625 
Q 6 51.90625 7.390625 55.25 
Q 8.796875 58.59375 11.6875 61.84375 
Q 14.59375 65.09375 18.609375 66.609375 
Q 21.6875 67.828125 24.90625 67.828125 
Q 27.6875 67.828125 30.296875 67.0625 
Q 32.90625 66.3125 35.8125 64.0625 
Q 38.71875 61.8125 40.859375 58.296875 
Q 43.015625 54.78125 44.40625 48.625 
Q 45.796875 42.484375 45.796875 34.515625 
L 45.796875 32.421875 
Q 45.796875 28.609375 45.65625 25.609375 
Q 45.515625 22.609375 44.703125 17.984375 
Q 43.890625 13.375 42.453125 10.03125 
Q 41.015625 6.6875 38.109375 3.53125 
Q 35.203125 0.390625 31.203125 -1.125 
Q 27.875 -2.25 24.90625 -2.203125 
Q 22.125 -2.203125 19.5625 -1.484375 
Q 17 -0.78125 14.03125 1.359375 
Q 11.078125 3.515625 8.984375 7 
Q 6.890625 10.5 5.5 16.703125 
Q 4.109375 22.90625 4.109375 31 
z
M 11.921875 31 
Q 11.921875 24.3125 12.8125 19.25 
Q 13.71875 14.203125 15.015625 11.34375 
Q 16.3125 8.5 18.15625 6.734375 
Q 20.015625 4.984375 21.59375 4.4375 
Q 23.1875 3.90625 25 3.90625 
Q 27.296875 3.90625 29.296875 4.953125 
Q 31.296875 6 33.390625 8.640625 
Q 35.5 11.28125 36.734375 17.03125 
Q 37.984375 22.796875 37.984375 31.109375 
L 37.984375 37.015625 
Q 37.984375 44.625 36.734375 49.796875 
Q 35.5 54.984375 33.34375 57.390625 
Q 31.203125 59.8125 29.203125 60.71875 
Q 27.203125 61.625 24.90625 61.625 
Q 22.609375 61.625 20.609375 60.71875 
Q 18.609375 59.8125 16.5 57.390625 
Q 14.40625 54.984375 13.15625 49.734375 
Q 11.921875 44.484375 11.921875 37.015625 
z
" id="CMUSansSerif-30"/>
     <path d="M 9.515625 11.921875 
Q 5.609375 11.921875 5.609375 15.015625 
Q 5.609375 18.109375 9.1875 18.109375 
Q 9.375 18.109375 9.6875 18.0625 
Q 10.015625 18.015625 10.203125 18.015625 
L 68.3125 18.015625 
Q 72.125 18.015625 72.125 14.984375 
Q 72.125 11.921875 68.015625 11.921875 
L 9.515625 11.921875 
z
M 5.609375 35.015625 
Q 5.609375 38.09375 9.625 38.09375 
L 68.109375 38.09375 
Q 72.125 38.09375 72.125 35.015625 
Q 72.125 34.421875 71.90625 33.859375 
Q 71.6875 33.296875 70.796875 32.640625 
Q 69.921875 31.984375 68.40625 31.984375 
L 9.28125 31.984375 
Q 7.765625 31.984375 6.875 32.640625 
Q 6 33.296875 5.796875 33.859375 
Q 5.609375 34.421875 5.609375 35.015625 
z
" id="CMUSansSerif-3d"/>
     <path d="M 4 -19.484375 
L 17.578125 44.484375 
L 25.09375 44.484375 
L 24.125 39.59375 
Q 32.625 45.515625 41.796875 45.515625 
Q 47.796875 45.515625 50.65625 40.59375 
Q 53.515625 35.6875 53.515625 29.390625 
Q 53.515625 17.578125 46.109375 8.21875 
Q 38.71875 -1.125 29.203125 -1.125 
Q 21.875 -1.125 17 4.59375 
L 11.8125 -19.484375 
z
M 18.5 11.71875 
Q 18.5 9.90625 20.546875 7.484375 
Q 22.609375 5.078125 26.609375 5.078125 
Q 33.59375 5.078125 39.5 11.546875 
Q 45.40625 18.015625 45.40625 26.515625 
Q 45.40625 32.03125 42.453125 35.5625 
Q 39.5 39.109375 34.8125 39.109375 
Q 30.90625 39.109375 27.515625 37 
Q 24.125 34.90625 23.1875 33.296875 
Q 22.796875 32.625 20.640625 22.359375 
Q 18.5 12.109375 18.5 11.71875 
z
" id="CMUSansSerif-Oblique-70"/>
    </defs>
    <g transform="translate(3.591521 203.021739)scale(0.14 -0.14)">
     <use transform="translate(0 0.6875)" xlink:href="#CMUSansSerif-Oblique-3be"/>
     <use transform="translate(47.167969 -12.657813)scale(0.7)" xlink:href="#CMUSansSerif-30"/>
     <use transform="translate(100.271094 0.6875)" xlink:href="#CMUSansSerif-3d"/>
     <use transform="translate(193.933203 0.6875)" xlink:href="#CMUSansSerif-Oblique-3be"/>
     <use transform="translate(241.101172 -12.657813)scale(0.7)" xlink:href="#CMUSansSerif-Oblique-70"/>
    </g>
   </g>
   <g id="text_2">
    <!-- $\xi_m = \xi_{m+p}$ -->
    <defs>
     <path d="M 8.015625 0 
L 17.484375 45.015625 
L 24.8125 45.015625 
L 23.390625 37.984375 
Q 30.90625 45.515625 39.5 45.515625 
Q 49.609375 45.515625 50.484375 37.40625 
Q 58.59375 45.515625 67.28125 45.515625 
Q 78.375 45.515625 78.421875 35.5 
Q 78.421875 33.40625 77.59375 29.203125 
L 71.390625 0 
L 63.484375 0 
L 69.671875 29 
Q 70.171875 31.203125 70.21875 32.8125 
Q 70.21875 39.40625 62.109375 39.40625 
Q 52.484375 39.40625 48.484375 23.296875 
L 43.609375 0 
L 35.796875 0 
L 41.890625 28.90625 
Q 42.390625 31.109375 42.390625 32.8125 
Q 42.390625 39.40625 34.28125 39.40625 
Q 30.765625 39.40625 27.921875 36.953125 
Q 25.09375 34.515625 23.75 31.953125 
Q 22.40625 29.390625 21.578125 26.703125 
Q 21 24.8125 15.828125 0 
z
" id="CMUSansSerif-Oblique-6d"/>
     <path d="M 7.28125 21.921875 
Q 5.515625 23.78125 5.515625 25 
Q 5.515625 26.21875 6.203125 26.953125 
Q 6.890625 27.6875 7.6875 27.875 
Q 8.5 28.078125 10.203125 28.078125 
L 35.796875 28.078125 
L 35.796875 53.8125 
Q 35.796875 58.296875 38.8125 58.296875 
Q 41.890625 58.296875 41.890625 53.8125 
L 41.890625 28.078125 
L 67.921875 28.078125 
Q 72.125 28.078125 72.125 25 
Q 72.125 22.015625 68.109375 22.015625 
L 41.890625 22.015625 
L 41.890625 -3.8125 
Q 41.890625 -8.296875 38.921875 -8.296875 
Q 37.703125 -8.296875 36.890625 -7.53125 
Q 36.078125 -6.78125 35.890625 -6 
Q 35.796875 -5.609375 35.796875 -3.8125 
L 35.796875 22.015625 
L 10.015625 22.015625 
Q 9.625 21.921875 9.1875 21.921875 
Q 7.28125 21.921875 5.515625 23.78125 
z
" id="CMUSansSerif-2b"/>
    </defs>
    <g transform="translate(288.095186 203.021739)scale(0.14 -0.14)">
     <use transform="translate(0 0.6875)" xlink:href="#CMUSansSerif-Oblique-3be"/>
     <use transform="translate(47.167969 -12.657813)scale(0.7)" xlink:href="#CMUSansSerif-Oblique-6d"/>
     <use transform="translate(120.847266 0.6875)" xlink:href="#CMUSansSerif-3d"/>
     <use transform="translate(214.509375 0.6875)" xlink:href="#CMUSansSerif-Oblique-3be"/>
     <use transform="translate(261.677344 -12.657813)scale(0.7)" xlink:href="#CMUSansSerif-Oblique-6d"/>
     <use transform="translate(328.36875 -12.657813)scale(0.7)" xlink:href="#CMUSansSerif-2b"/>
     <use transform="translate(393.932227 -12.657813)scale(0.7)" xlink:href="#CMUSansSerif-Oblique-70"/>
    </g>
   </g>
   <g id="text_3">
    <!-- $\vec{\xi}$ -->
    <defs>
     <path d="M 20.015625 59.515625 
Q 19.234375 59.515625 18.71875 60.09375 
Q 18.21875 60.6875 18.21875 61.53125 
Q 18.21875 62.25 18.71875 62.859375 
Q 19.234375 63.484375 20.015625 63.484375 
L 55.421875 63.484375 
Q 52.78125 67.046875 52.78125 69.390625 
Q 52.78125 70.265625 53.390625 70.828125 
Q 54 71.390625 54.78125 71.390625 
Q 56.453125 71.390625 56.78125 69.828125 
Q 57.765625 65.53125 61.53125 63.1875 
Q 62.5 62.546875 62.5 61.53125 
Q 62.5 60.296875 61.53125 59.8125 
Q 55.859375 56.984375 52.390625 52.296875 
Q 52 51.609375 50.875 51.609375 
Q 50.140625 51.609375 49.5 52.1875 
Q 48.875 52.78125 48.875 53.609375 
Q 48.875 55.421875 53.71875 59.515625 
z
" id="Cmmi10-7e"/>
    </defs>
    <g transform="translate(176.872868 207.013927)scale(0.14 -0.14)">
     <use transform="translate(-10.426758 35.609375)" xlink:href="#Cmmi10-7e"/>
     <use transform="translate(0 0.40625)" xlink:href="#CMUSansSerif-Oblique-3be"/>
    </g>
   </g>
   <g id="patch_2">
    <path clip-path="url(#p73aef4b045)" d="M 350.929985 187.826087 
L 346.150466 190.173913 
L 346.150466 188.295652 
L 9.535752 188.295652 
L 9.535752 187.356522 
L 346.150466 187.356522 
L 346.150466 185.478261 
z
"/>
   </g>
  </g>
 </g>
 <defs>
  <clipPath id="p73aef4b045">
   <rect height="216" width="360" x="0" y="0"/>
  </clipPath>
 </defs>
</svg>
